<svg id="Layer_1" xmlns="http://www.w3.org/2000/svg" viewBox="0 0 128 128"><path class="st0" d="M105 109c-7.6 8.5-16.9 15.2-27 19.1-.4.1-.8 0-1.1-.3-.3-.4-.2-.9.2-1.2 7.6-5.5 16.2-12.7 23.2-21.5s12.6-19.2 14.1-30.9c2.9-21.5-3.5-37.8-14.1-48.1-5.5-5.3-12.2-9-19.4-11-7.1-1.9-14.7-2.1-22.1-.4-13.6 3.2-26.4 12.9-33.8 30-4.5 10.2-3.4 18.3-2.4 25.4.6 4.8 1.2 9.1.1 13.4-1.1 4.2-3.4 7-6 8.2-1.5.7-3.1.9-4.8.5-1.6-.3-3.1-1.2-4.5-2.5-3.2-3-5.5-8.7-5.4-17.2.4-19.4 8-36.2 19.4-48.8 6.8-7.5 15-13.5 23.8-17.6 8.7-4 18.1-6.1 27.3-6 11.5.2 22.7 4 32.2 12.1 7.9 6.8 13.4 14.5 16.8 22.6 5.2 12.5 5.6 26.1 2.4 39.1-3.2 12.9-9.9 25.2-18.9 35.1z"/><path class="st0" d="M32.1 51.3c2.5-6.6 6.4-12.6 11.4-17.2.3-.3.8-.4 1.2-.2.4.3.5.8.3 1.2-3.2 4.8-6.5 10.9-8.6 17.6-2.1 6.6-2.9 13.9-1.1 21C38.5 86.9 46 95 54.5 98.7c4.4 1.9 9.1 2.6 13.7 2.2 4.6-.4 9-2 12.9-4.6 7.1-4.8 12.3-13.2 12.7-24.7.2-6.9-2.2-11.3-4.4-15.2-1.5-2.7-2.9-5.1-3.2-8-.3-2.8.4-5 1.7-6.4.8-.8 1.8-1.3 2.9-1.4 1-.2 2.2 0 3.4.5 2.6 1.1 5.4 4 7.3 9.1 4.3 11.5 3.8 23.1 0 33-2.3 5.9-5.7 11.3-9.9 15.6-4.2 4.3-9.3 7.7-14.8 9.6-6.8 2.4-14.4 2.7-21.9 0-6.3-2.2-11.3-5.6-15.2-9.7-6-6.2-9.4-14.2-10.5-22.5-1.2-8.3-.1-17 2.9-24.9z"/></svg>