<svg id="Layer_1" data-name="Layer 1" xmlns="http://www.w3.org/2000/svg" xmlns:xlink="http://www.w3.org/1999/xlink" viewBox="0 0 193 64"><defs><style>.cls-1{fill:#231f20;}.cls-2{fill:url(#linear-gradient);}</style><linearGradient id="linear-gradient" x1="30.74" x2="30.74" y2="64" gradientUnits="userSpaceOnUse"><stop offset="0" stop-color="#73c6a6"/><stop offset="1" stop-color="#0fbfda"/></linearGradient></defs><title>logo</title><path class="cls-1" d="M106,4.66q3.54,0,4.77,1.4A4.93,4.93,0,0,1,112,9.44a4.74,4.74,0,0,1,0,.58q0,.33-.16,1.11t-.37,2.27q-.25,1.48-.66,4H109.1a13.47,13.47,0,0,0,.25-2.47q0-3.71-2.3-5.36A11.2,11.2,0,0,0,100.47,8H85.17L81.39,29.38h22.21l-.58,3.3H80.81l-4,23.07H91.17a18.45,18.45,0,0,0,9.21-2.06,17.33,17.33,0,0,0,6.33-7l1.56.41L104,54.92a7.89,7.89,0,0,1-2.67,3A7.38,7.38,0,0,1,97.18,59H68.8q2-11.45,3.37-19.4t2.3-13.18q.9-5.23,1.4-8.2t.74-4.49q.25-1.52.29-2t0-.74a5.45,5.45,0,0,0-1-3.42q-1-1.28-3.7-1.28H70.61l.33-1.65ZM115,59q2-11.45,3.37-19.4t2.3-13.18q.9-5.23,1.4-8.2t.74-4.49q.25-1.52.29-2t0-.74a5.45,5.45,0,0,0-1-3.42q-1-1.28-3.7-1.28h-1.64l.33-1.65h7.4a8.91,8.91,0,0,1,4.73.95q1.44.95,1.44,4.08,0,.33,0,.91t-.29,2.18q-.25,1.61-.78,4.65t-1.44,8.44q-.9,5.4-2.3,13.47T122.43,59Zm21.14,0q1.32-7.58,2.22-12.85t1.52-8.77q.62-3.5.95-5.56t.49-3.17q.16-1.11.21-1.52t0-.66a5,5,0,0,0-1-3.34q-1-1.19-3.66-1.19h-1.65l.25-1.65h7.4a8.83,8.83,0,0,1,4.77,1q1.48,1,1.48,4,0,.33,0,.82t-.21,1.65q-.16,1.15-.53,3.3t-1,5.77q-.62,3.63-1.56,9.06T143.57,59Zm15.3-48.36a4.92,4.92,0,0,1-1.19,3.3,4.14,4.14,0,0,1-3.33,1.4,3.43,3.43,0,0,1-2.71-1.24,4.5,4.5,0,0,1-1.07-3,4.92,4.92,0,0,1,1.19-3.3,4.14,4.14,0,0,1,3.33-1.4,3.43,3.43,0,0,1,2.71,1.24,4.5,4.5,0,0,1,1.07,3ZM170,43.8,156.65,59h-4.11L168.9,40.5l-5-11.95q-2.47-5.93-7.32-6.59l.25-1.65h7a7.2,7.2,0,0,1,4.85,1.77,12.31,12.31,0,0,1,3.29,4.82l3.62,8.65,13.32-15.24H193L176.63,38.86l5,11.95q2.47,6,7.73,6.59L189.13,59h-7.4a7.2,7.2,0,0,1-4.85-1.77,12.31,12.31,0,0,1-3.29-4.82L170,43.8Z"/><path class="cls-2" d="M10.6,39c0-2.64-.78-7-.78-8.92,0-9.18,8.46-23.31,23.93-23.31,11,0,22.36,8.88,22.36,25.25,0,14.13-8.87,22.47-11.4,24.94a70.29,70.29,0,0,1-7.49,6.29.45.45,0,0,0-.14.33.41.41,0,0,0,.44.44c.56,0,6.25-2.34,11.8-7.76S61.47,41,61.47,28.28C61.47,13.05,49.05,0,34.95,0,15.67,0,0,17.62,0,36.22,0,43,2.88,46.13,5.59,46.13,8.81,46.13,10.6,42.62,10.6,39Z"/><path class="cls-1" d="M44.38,20.21a2.68,2.68,0,0,0-2.68,3c0,4.27,3.84,6.88,3.84,11.92,0,7.08-4.49,15.28-14.27,15.28S16,40.27,16,32.55C16,24.26,21.35,18,21.35,17.3a.45.45,0,0,0-.44-.44c-.54,0-7.67,6.38-7.67,18.27S22.69,55,31.32,55c13.07,0,19.48-12.86,19.48-21.27C50.79,27.26,48.42,20.21,44.38,20.21Z"/></svg>