<?xml version="1.0" encoding="utf-8"?>
<!-- Generator: Adobe Illustrator 19.2.1, SVG Export Plug-In . SVG Version: 6.00 Build 0)  -->
<svg version="1.1" id="Layer_1" xmlns="http://www.w3.org/2000/svg" xmlns:xlink="http://www.w3.org/1999/xlink" x="0px" y="0px"
	 viewBox="0 0 36 36" style="enable-background:new 0 0 36 36;" xml:space="preserve">
<style type="text/css">
	.st0{fill:url(#SVGID_1_);}
	.st1{fill:#FFFFFF;}
</style>
<linearGradient id="SVGID_1_" gradientUnits="userSpaceOnUse" x1="18" y1="0" x2="18" y2="36">
	<stop  offset="0" style="stop-color:#66D6AC"/>
	<stop  offset="1" style="stop-color:#0BBFDB"/>
</linearGradient>
<path class="st0" d="M6.2,21.9c0-1.5-0.5-3.3-0.5-5c0-5.2,5-13.1,14-13.1c6.4,0,13.1,5,13.1,14.2c0,7.9-5.2,12.6-6.7,14
	c-2.2,2-4.4,3.5-4.4,3.5c-0.1,0.1-0.1,0.1-0.1,0.2c0,0.1,0.1,0.2,0.3,0.2c0.3,0,3.7-1.3,6.9-4.4c3.3-3.1,7.1-8.6,7.1-15.7
	C36,7.3,28.7,0,20.5,0C9.2,0,0,9.9,0,20.4c0,3.8,1.7,5.6,3.3,5.6C5.1,25.9,6.2,24.2,6.2,21.9z"/>
<path class="st1" d="M26,11.4c-1,0-1.6,0.7-1.6,1.7c0,2.4,2.3,3.9,2.3,6.7c0,4-2.6,8.6-8.4,8.6s-8.9-5.7-8.9-10
	c0-4.7,3.1-8.2,3.1-8.6c0-0.2-0.2-0.2-0.3-0.2c-0.3,0-4.5,3.6-4.5,10.3c0,6.7,5.5,11.2,10.6,11.2c7.7,0,11.4-7.2,11.4-12
	C29.7,15.4,28.4,11.4,26,11.4z"/>
</svg>
