<svg id="Layer_1" xmlns="http://www.w3.org/2000/svg" viewBox="0 0 64 64"><path class="st0" d="M10.7 23.6L22.1 32l-11.4 8.4V23.6zm41.9 21.2c-.4.4-1.1.7-1.8.7H13.2c-.7 0-1.3-.3-1.8-.7-.4-.4-.7-1-.7-1.6l13.2-9.8 6.2 4.6c.6.4 1.2.6 1.9.6s1.3-.2 1.9-.6l6.2-4.6 13.2 9.8c0 .6-.3 1.1-.7 1.6zm.7-4.3L41.9 32l11.4-8.4v16.9zm-2.5-22H13.2c-.7 0-1.3.3-1.8.7-.4.4-.7 1-.7 1.6l20 14.8c.4.3.8.4 1.3.4s.9-.1 1.3-.4l20-14.8c0-.6-.3-1.2-.7-1.6-.5-.4-1.1-.7-1.8-.7z"/><path class="st1" d="M32 0c8.8 0 16.8 3.6 22.6 9.4C60.4 15.2 64 23.2 64 32s-3.6 16.8-9.4 22.6C48.8 60.4 40.9 64 32 64s-16.8-3.6-22.6-9.4S0 40.9 0 32 3.6 15.2 9.4 9.4 23.2 0 32 0zm21.9 10.1c-5.6-5.5-13.3-9-21.9-9s-16.3 3.5-21.9 9.1c-5.5 5.5-9 13.3-9 21.8s3.5 16.3 9.1 21.9c5.6 5.6 13.3 9.1 21.9 9.1s16.3-3.5 21.9-9.1c5.6-5.6 9.1-13.3 9.1-21.9s-3.6-16.3-9.2-21.9z"/></svg>