<svg id="Layer_1" xmlns="http://www.w3.org/2000/svg" viewBox="0 0 64 64"><path class="st0" d="M32 20.6c4.2 0 7.6 3.4 7.6 7.7 0 4.2-3.4 7.6-7.6 7.6-4.2 0-7.6-3.4-7.6-7.6 0-4.3 3.4-7.7 7.6-7.7zm0-5.2c7.1 0 12.8 5.8 12.8 12.9 0 7.1-5.8 12.8-12.8 12.8s-12.9-5.8-12.9-12.8c0-7.2 5.8-12.9 12.9-12.9zm0 39.5c4.3-5.1 10.6-11.4 14.3-16.7 2.1-3 3.2-6.4 3.2-10 0-9.7-7.8-17.4-17.4-17.4s-17.4 7.8-17.4 17.4c0 3.6 1.1 7.1 3.2 10 3.6 5.3 9.8 11.7 14.1 16.7z"/><path class="st1" d="M32 0c8.8 0 16.8 3.6 22.6 9.4S64 23.2 64 32s-3.6 16.8-9.4 22.6S40.8 64 32 64s-16.8-3.6-22.6-9.4S0 40.8 0 32 3.6 15.2 9.4 9.4 23.2 0 32 0zm21.9 10.1c-5.6-5.6-13.4-9-21.9-9s-16.3 3.5-21.9 9.1c-5.6 5.5-9 13.3-9 21.8s3.5 16.3 9.1 21.9c5.6 5.6 13.3 9.1 21.9 9.1s16.3-3.5 21.9-9.1c5.6-5.6 9.1-13.3 9.1-21.9s-3.6-16.3-9.2-21.9z"/></svg>