<svg id="Layer_1" xmlns="http://www.w3.org/2000/svg" viewBox="0 0 64 64"><path class="st0" d="M12 37.8H11.7c-.6-.1-1.3-.4-1.7-.9-.4-.5-.7-1-.7-1.6v-.1c0-.2 0-.6.1-1.5.6-8.3 5.3-15.7 12.4-19.9 3.9-2.3 8.3-3.5 12.7-3.5h1.2l1.4.1c.3.1.8.4 1.2.7.5.5.7 1.2.7 1.9v.1c0 .6-.3 1.1-.6 1.4-.2.2-.5.3-.8.3h-.3l-1.5-.1h-1.3c-3.7 0-7.3 1-10.5 2.8-6.1 3.6-9.9 9.9-10.3 17V36c0 .6-.1 1-.4 1.3-.3.3-.8.5-1.3.5z"/><path class="st0" d="M21.5 35c-.7 0-1.3-.3-1.7-.7-.9-.9-1-2.5-.9-3.2.3-4.4 2.7-8.4 6.5-10.6 2-1.2 4.3-1.8 6.7-1.8h.7c.8 0 2.2.5 2.9 1.3.4.5.6 1.1.6 1.7 0 .4-.2.6-.5.9-.7.5-1.7.6-2 .6h-.5c-.4 0-.8-.1-1.2-.1-1.6 0-3 .4-4.4 1.2-2.9 1.7-4.6 5-4.3 8.4 0 .5-.3 1.2-.8 1.7-.5.4-.8.6-1.1.6zM47.4 17.1c-.6.2-2.1 2-3.6 3.9-1.5 2-2.9 4.2-2.4 4.7s1 .9 1.6 1.3l.2.1 1.3 1c.7.6 1.3 1.2 1.9 2 .5.7.6 1.3 0 2-2.3 2.4-5 4.3-7.4 6.6-2 2-3.6 4.4-5.6 6.3-.7.6-1.3.6-2 0-.8-.6-1.4-1.3-2-1.9l-1-1.3c-.5-.6-.9-1.1-1.5-1.7-.5-.5-2.7.9-4.7 2.5-2 1.5-3.7 3-3.9 3.6-.2.5.9 2.2.9 2.2l1.1 1.3c1.9 1.9 4 3.9 6.8 3.9 8.9-.2 27.4-18.8 27.6-27.7.1-2.9-2-5-3.9-6.8L49.6 18c-.9-.7-1.7-1.1-2.2-.9z"/><path class="st0" d="M28 35.7c-.4 0-.8-.1-1-.4-.5-.6-.6-1.5-.6-1.9.2-2.6 1.6-5 3.9-6.3 1.2-.7 2.6-1.1 4-1.1h.4c.4 0 1.3.3 1.7.8.3.3.4.6.3 1 0 .2-.1.4-.3.5-.4.3-1 .3-1.2.3h-1c-.9 0-1.8.3-2.6.7-1.7 1-2.8 3-2.6 5 0 .3-.2.7-.5 1-.1.3-.3.4-.5.4z"/><path class="st1" d="M32 0c8.8 0 16.8 3.6 22.6 9.4C60.4 15.2 64 23.2 64 32s-3.6 16.8-9.4 22.6C48.8 60.4 40.9 64 32 64s-16.8-3.6-22.6-9.4S0 40.9 0 32 3.6 15.2 9.4 9.4 23.2 0 32 0zm21.9 10.1c-5.6-5.5-13.3-9-21.9-9s-16.3 3.5-21.9 9.1c-5.5 5.5-9 13.3-9 21.8s3.5 16.3 9.1 21.9c5.6 5.6 13.3 9.1 21.9 9.1s16.3-3.5 21.9-9.1c5.6-5.6 9.1-13.3 9.1-21.9s-3.6-16.3-9.2-21.9z"/></svg>